<svg width="720" height="200" viewBox="0 0 720 200" xmlns="http://www.w3.org/2000/svg" role="img">
<title>Sniped Logo</title>
<desc>Sniped brand logo for dark backgrounds - no .io</desc>

<rect width="720" height="200" fill="#0f1623" rx="16"/>

<rect x="40" y="40" width="120" height="120" rx="28" fill="#f5c518"/>
<rect x="44" y="44" width="112" height="112" rx="24" fill="none" stroke="#d4a800" stroke-width="2"/>

<circle cx="100" cy="100" r="36" fill="none" stroke="#0f1623" stroke-width="3"/>
<circle cx="100" cy="100" r="20" fill="none" stroke="#0f1623" stroke-width="2"/>
<circle cx="100" cy="100" r="5" fill="#0f1623"/>

<line x1="100" y1="64" x2="100" y2="74" stroke="#0f1623" stroke-width="3" stroke-linecap="round"/>
<line x1="100" y1="126" x2="100" y2="136" stroke="#0f1623" stroke-width="3" stroke-linecap="round"/>
<line x1="64" y1="100" x2="74" y2="100" stroke="#0f1623" stroke-width="3" stroke-linecap="round"/>
<line x1="126" y1="100" x2="136" y2="100" stroke="#0f1623" stroke-width="3" stroke-linecap="round"/>

<line x1="100" y1="55" x2="100" y2="58" stroke="#0f1623" stroke-width="1.5" stroke-linecap="round"/>
<line x1="100" y1="142" x2="100" y2="145" stroke="#0f1623" stroke-width="1.5" stroke-linecap="round"/>
<line x1="55" y1="100" x2="58" y2="100" stroke="#0f1623" stroke-width="1.5" stroke-linecap="round"/>
<line x1="142" y1="100" x2="145" y2="100" stroke="#0f1623" stroke-width="1.5" stroke-linecap="round"/>

<line x1="124" y1="76" x2="122" y2="78" stroke="#0f1623" stroke-width="1.5" stroke-linecap="round"/>
<line x1="76" y1="124" x2="78" y2="122" stroke="#0f1623" stroke-width="1.5" stroke-linecap="round"/>

<rect x="126" y="52" width="16" height="16" rx="4" fill="#0f1623"/>
<text x="134" y="63.5" text-anchor="middle" font-family="ui-monospace,monospace" font-size="11" font-weight="700" fill="#f5c518">+</text>

<text x="188" y="118" font-family="ui-monospace,'Cascadia Code','Courier New',monospace" font-weight="700" font-size="76" letter-spacing="-2px" fill="#ffffff">Sniped</text>

<text x="191" y="151" font-family="ui-monospace,monospace" font-weight="400" font-size="13" letter-spacing="5px" fill="#4a5568">AI LEAD INTELLIGENCE</text>

</svg>
